<?xml version="1.0" encoding="UTF-8"?><svg id="Layer_1" xmlns="http://www.w3.org/2000/svg" viewBox="0 0 300.27 292.54"><defs><style>.cls-1{fill:#731012;}</style></defs><g><g><path class="cls-1" d="M78.52,151.35l2.04-10.26c-4.32-1.27-8.83-4.1-11.32-7.43l7.01-9.68c1.62,2.56,4.75,5.21,7.68,5.8,3.22,.64,6.6-1.02,7.46-5.32,2.22-11.14-16.21-18.57-12.85-35.47,1.87-9.38,8.53-14.76,16.38-15.43l1.38-6.94,9.38,1.87-1.28,6.45c4.46,1.6,7.66,4.37,9.44,6.65l-6.24,9.93c-1.94-2.52-5.28-5.11-8.11-5.68s-5.61,.61-6.35,4.32c-2.06,10.36,16.62,17.53,13.06,35.41-1.98,9.97-8.82,15.21-16.07,16.41l-2.24,11.24-9.38-1.87Z"/><path class="cls-1" d="M109.37,145.82l2.26-11.33,17.04-18.75c4.57-5.08,7.9-9.09,9.01-14.66,.88-4.4-.75-7.46-3-7.91-2.54-.51-6.21,2.12-8.61,5.5l-6.03-9.53c3.82-5.43,11.48-10.21,20.57-8.4s14.56,11.03,12.44,21.68c-1.52,7.62-5.89,13.76-14.05,22.6l-11.26,12.18,17.59,3.5-2.35,11.82-33.61-6.69Z"/><path class="cls-1" d="M157.28,141.34c1.84,2.5,4.22,4.29,7.16,4.88,3.62,.72,8.63-2.55,10.11-9.97,1.36-6.84-1.1-10.78-4.52-11.47-1.56-.31-2.85,.04-3.71,.28l-2-8.83,14.6-14.16-15.83-3.15,2.39-12.02,30.48,6.07-2.26,11.33-13.08,12.63c7.66,3.35,10.99,10.62,8.87,21.27-3.05,15.34-14.32,21.93-25.56,19.7-5.67-1.13-11.26-4.68-13.68-8.31l7.03-8.25Z"/><path class="cls-1" d="M194.77,162.82l27.99-52.33-20.81-4.14,2.33-11.72,34.59,6.89-2.06,10.36-26.7,54.01-15.34-3.05Z"/><path class="cls-1" d="M85.27,196.84l3.62-22.26-.2-.04-7.59,21.47-6.22-1.24,1.22-22.73-.2-.04-5.18,21.94-6.76-1.35,8.5-33.46,9.07,1.81-1.39,23.62,.2,.04,7.66-22.37,9.07,1.81-4.97,34.16-6.81-1.36Z"/><path class="cls-1" d="M96.73,199.12l6.73-33.81,7.64,1.52-6.73,33.81-7.64-1.52Z"/><path class="cls-1" d="M109.65,201.7l6.73-33.81,7.55,1.5-5.6,28.13,7.89,1.57-1.13,5.68-15.44-3.07Z"/><path class="cls-1" d="M128.47,205.44l6.73-33.81,7.55,1.5-5.6,28.13,7.89,1.57-1.13,5.68-15.44-3.07Z"/><path class="cls-1" d="M147.33,209.2l6.73-33.81,7.64,1.52-6.73,33.81-7.64-1.52Z"/><path class="cls-1" d="M162.88,194.77c2.42-12.15,8.39-16.57,15.16-15.22s10.59,7.71,8.17,19.86c-2.42,12.15-8.47,16.45-15.14,15.12s-10.61-7.61-8.19-19.77Zm15.58,3.1c1.63-8.18,.93-12.09-1.57-12.59s-4.69,2.84-6.32,11.02-.92,12.04,1.63,12.55,4.63-2.8,6.26-10.98Z"/><path class="cls-1" d="M200.04,219.7l-1.73-22.25-4.2,21.07-6.76-1.35,6.73-33.81,8.53,1.7,1.42,22.04,.1,.02,4.17-20.92,6.81,1.36-6.73,33.81-8.33-1.66Z"/></g><g><path d="M27.23,156.33c-.43,.57-.73,1.59-.64,2.29,.1,.83,.77,1.72,1.97,1.57,3.01-.36,3.62-5.51,7.84-6.02,2.69-.32,4.41,1.71,4.66,3.77,.17,1.46-.3,2.81-.72,3.4l-2.17-.68c.38-.59,.76-1.67,.67-2.45-.09-.72-.62-1.43-1.59-1.31-2.8,.34-3.36,5.53-7.76,6.05-2.92,.35-4.82-1.77-5.08-3.93-.13-1.07,.07-2.74,.59-3.5l2.24,.81Z"/><path d="M26.1,168.55l15.7-3.56,.98,4.3c.68,3-.71,4.56-3.74,5.25-3.66,.83-5.31-.64-5.88-3.14l-.29-1.27-6.1,1.38-.67-2.96Zm9.14,2.21c.17,.77,1.02,1.35,3.03,.89,1.78-.4,2.55-1.2,2.36-2.04l-.27-1.18-5.37,1.22,.25,1.11Z"/><path d="M36.9,179.07c5.26-1.87,8.64-.72,9.65,2.14,1.02,2.86-.88,5.88-6.14,7.75-5.25,1.87-8.56,.64-9.56-2.17-1.02-2.86,.79-5.85,6.05-7.72Zm2.49,6.94c4.02-1.43,5.51-2.95,5.12-4.07-.4-1.12-2.51-1.36-6.54,.07-4.02,1.43-5.47,2.93-5.07,4.06,.4,1.12,2.47,1.38,6.49-.05Z"/><path d="M37.86,202.29l8.39-7.74-.04-.08-9.8,4.92-1.22-2.44,14.39-7.22,1.59,3.17-8.27,7.44,.04,.08,9.59-4.82,1.23,2.46-14.39,7.22-1.51-3Z"/><path d="M44.96,209.16c-.13,.7,.05,1.75,.43,2.34,.46,.71,1.45,1.21,2.47,.55,2.55-1.65,.83-6.54,4.4-8.85,2.27-1.47,4.71-.41,5.84,1.34,.8,1.24,.97,2.66,.85,3.37l-2.25,.34c.08-.69-.05-1.83-.48-2.5-.39-.61-1.18-1.01-2.01-.48-2.37,1.53-.59,6.44-4.31,8.85-2.47,1.6-5.11,.52-6.29-1.3-.58-.9-1.14-2.49-1.01-3.41l2.37-.25Z"/><path d="M55.3,215.37c4.32-3.52,7.9-3.58,9.81-1.22,1.92,2.35,1.15,5.84-3.18,9.36s-7.85,3.48-9.74,1.17c-1.92-2.35-1.22-5.78,3.1-9.31Zm4.68,5.7c3.31-2.7,4.2-4.63,3.45-5.55-.75-.92-2.82-.44-6.14,2.26-3.31,2.7-4.17,4.6-3.41,5.52s2.79,.47,6.1-2.23Z"/><path d="M63.96,236.89l2.91-6.18-.54-.52-4.49,4.65-2.18-2.11,11.17-11.59,3.44,3.32c1.86,1.8,1.8,3.88-.28,6.04-1.88,1.95-3.48,1.99-4.69,1.67l-2.97,6.99-2.37-2.28Zm4.76-7.43c.66,.63,1.72,.43,3-.9,1.07-1.11,1.41-2.17,.71-2.85l-.92-.89-3.66,3.8,.87,.84Z"/><path d="M70.17,242.37l9.92-12.69,5.43,4.24-1.34,1.71-3.03-2.37-2.82,3.6,2.48,1.94-1.34,1.71-2.48-1.94-3.09,3.95,3.2,2.5-1.34,1.71-5.59-4.37Z"/><path d="M79.82,249.63l8.45-13.71,3.77,2.33c2.9,1.79,3.77,4.69,.71,9.65-3.14,5.08-6.36,5.78-9.42,3.9l-3.52-2.17Zm4.6,.28c1.73,1.07,3.47-.03,5.61-3.5,2.3-3.73,2.13-5.54,.72-6.41l-1.03-.64-6.17,10.01,.87,.54Z"/><path d="M105.29,262.71l.96-4.06-2.45-.98-2.07,3.62-2.78-1.11,8.91-13.79,3.25,1.3-3.05,16.12-2.78-1.11Zm3.08-12.79l-.09-.03-3.35,5.83,1.86,.74,1.57-6.53Z"/><path d="M120.44,267.41l1.27-11.43-.09-.02-4.39,10.63-2.89-.74,1.22-16.31,2.85,.73-1.48,11.78,.09,.02,4.51-11.01,2.69,.69-1.36,11.79,.09,.02,4.39-11.01,2.85,.73-6.78,14.88-2.96-.76Z"/><path d="M136.67,270.27l-.09-4.18-2.62-.33-1.09,4.03-2.96-.37,5.16-15.59,3.47,.44,1.1,16.37-2.96-.37Zm-.23-13.16h-.09s-1.78,6.47-1.78,6.47l1.99,.25-.12-6.72Z"/><path d="M150.5,271.04l-2.1-6.5h-.75s-.1,6.45-.1,6.45l-3.03-.04,.24-16.1,4.78,.07c2.59,.04,3.97,1.6,3.92,4.61-.04,2.71-1.18,3.83-2.28,4.42l2.6,7.13-3.29-.05Zm-1.6-8.68c.91,.01,1.55-.86,1.58-2.71,.02-1.54-.45-2.55-1.43-2.57l-1.28-.02-.08,5.27,1.21,.02Z"/><path d="M158.95,270.84l-1.7-16.02,4.41-.47c3.39-.36,5.85,1.4,6.47,7.2,.63,5.94-1.49,8.47-5.07,8.85l-4.11,.44Zm3.81-2.59c2.02-.22,2.73-2.15,2.3-6.21-.47-4.36-1.71-5.69-3.36-5.51l-1.21,.13,1.25,11.7,1.02-.11Z"/><path d="M174.22,265.91c.61,.37,1.65,.57,2.34,.42,.82-.18,1.63-.93,1.37-2.12-.65-2.96-5.84-3.06-6.75-7.21-.58-2.64,1.26-4.56,3.29-5,1.44-.32,2.82,.02,3.45,.38l-.46,2.23c-.62-.32-1.73-.6-2.51-.43-.71,.16-1.36,.76-1.15,1.71,.61,2.76,5.83,2.8,6.78,7.13,.63,2.87-1.29,4.97-3.41,5.44-1.05,.23-2.73,.2-3.54-.25l.59-2.3Z"/><path d="M193.05,263.67l-5.81-15.02,6.66-2.57,.78,2.02-3.83,1.48,1.73,4.48,3.14-1.21,.78,2.02-3.14,1.21,2.51,6.49-2.83,1.09Z"/><path d="M200.17,252.2c-2.56-4.95-1.88-8.46,.81-9.85,2.69-1.39,5.95,.07,8.51,5.03,2.56,4.95,1.8,8.4-.86,9.77-2.69,1.39-5.91,0-8.47-4.94Zm6.54-3.41c-1.96-3.79-3.67-5.06-4.73-4.52-1.06,.55-1.01,2.67,.95,6.47,1.96,3.79,3.65,5.02,4.7,4.47,1.06-.55,1.03-2.63-.93-6.43Z"/><path d="M223.01,248.14l-5.45-4.12-.62,.42,3.63,5.35-2.51,1.7-9.04-13.33,3.96-2.69c2.14-1.46,4.17-.97,5.86,1.52,1.52,2.24,1.24,3.82,.67,4.93l6.23,4.35-2.72,1.85Zm-6.29-6.19c.75-.51,.78-1.6-.26-3.12-.87-1.27-1.83-1.83-2.65-1.28l-1.06,.72,2.96,4.36,1-.68Z"/><path d="M234.56,239.08l-1.43-1.51-1.45-6.3c-.35-1.53-.77-2.99-1.73-4.01-.87-.92-1.77-1.03-2.21-.61-.49,.46-.48,1.22-.15,2.26l-2.34,.48c-.59-1.34-.63-3.45,1-4.99,1.61-1.52,3.96-1.24,5.61,.51,1.14,1.21,1.81,3.04,2.47,6.01l.93,4.22,3.16-2.98,1.63,1.73-5.5,5.19Z"/><path d="M237.41,225.1c-4.72-4.1-5.28-6.66-3.69-8.49,1.58-1.81,4.17-1.6,8.89,2.5,4.62,4.01,5.26,6.61,3.69,8.43-1.59,1.83-4.34,1.51-8.89-2.44Zm3.29-3.79c-3.52-3.06-4.92-3.84-5.38-3.31-.47,.55,.51,1.8,4.03,4.86,3.52,3.06,4.87,3.83,5.34,3.28,.46-.53-.47-1.77-4-4.83Z"/><path d="M251.48,220.79l-1.69-1.2-2.66-5.89c-.64-1.43-1.34-2.78-2.49-3.59-1.03-.73-1.94-.66-2.29-.16-.39,.55-.23,1.3,.3,2.24l-2.2,.93c-.84-1.2-1.29-3.26,0-5.09,1.28-1.81,3.64-1.99,5.61-.6,1.35,.96,2.37,2.63,3.6,5.41l1.75,3.95,2.51-3.54,1.94,1.38-4.37,6.17Z"/><path d="M258.58,210.37l-1.81-1.03-3.24-5.59c-.78-1.36-1.61-2.64-2.83-3.33-1.1-.62-1.99-.46-2.29,.07-.33,.59-.1,1.31,.52,2.2l-2.1,1.14c-.96-1.11-1.61-3.12-.5-5.06,1.1-1.93,3.43-2.35,5.52-1.16,1.44,.82,2.62,2.37,4.12,5.03l2.13,3.76,2.14-3.77,2.07,1.18-3.73,6.57Z"/></g><g><path d="M68.54,73.27l-11.74-11.02,2.12-2.26,11.74,11.02-2.12,2.26Z"/><path d="M78.28,63.83l-9.61-6.16-.07,.06,7.24,8.24-2.05,1.8-10.63-12.1,2.66-2.34,9.29,6.13,.07-.06-7.09-8.07,2.07-1.82,10.63,12.1-2.52,2.22Z"/><path d="M86.04,57.73l-11.75-11.45,2.48-1.71,8.9,9.59,.08-.05-5.77-11.75,2.42-1.67,6.57,15.03-2.92,2.02Z"/><path d="M94.52,52.2l-7.76-14.11,6.03-3.32,1.05,1.9-3.37,1.86,2.2,4.01,2.76-1.52,1.05,1.9-2.76,1.52,2.42,4.4,3.56-1.96,1.05,1.9-6.22,3.42Z"/><path d="M103.38,44.39c.66,.25,1.73,.25,2.37-.02,.77-.33,1.43-1.22,.96-2.34-1.19-2.79-6.3-1.93-7.97-5.83-1.06-2.49,.4-4.71,2.31-5.53,1.35-.58,2.78-.5,3.47-.26l-.04,2.28c-.67-.2-1.81-.27-2.54,.05-.67,.28-1.2,.99-.81,1.9,1.11,2.6,6.24,1.67,7.98,5.75,1.15,2.7-.35,5.12-2.35,5.97-.99,.42-2.65,.7-3.53,.41l.15-2.37Z"/><path d="M116.42,42.39l-4.1-13.24-2.85,.88-.66-2.14,8.65-2.68,.66,2.14-2.85,.88,4.1,13.24-2.94,.91Z"/><path d="M125.67,39.82l-3.41-15.74,3.03-.66,3.41,15.74-3.03,.66Z"/><path d="M139.04,37.58l-4.4-10.53h-.09s1.27,10.9,1.27,10.9l-2.71,.32-1.86-15.99,3.52-.41,4.16,10.32h.09s-1.24-10.67-1.24-10.67l2.73-.32,1.86,15.99-3.34,.39Z"/><path d="M153.48,29.26l2.95-.63-.06,7.84c-.68,.37-2.25,.82-3.83,.81-4.08-.03-6.21-3.13-6.16-8.22,.05-5.74,2.78-8.47,6.7-8.44,1.45,.01,2.63,.4,3.38,.8l-.72,2.21c-.91-.45-1.72-.76-2.56-.77-2.33-.02-3.64,2.35-3.67,6.22-.03,3.99,1.3,5.94,3.47,5.96,.14,0,.3,0,.47-.02l.05-5.76Z"/><path d="M166.83,38.18l2.58-15.9,3.06,.5-2.58,15.9-3.06-.5Z"/><path d="M180.13,40.98l-.27-11.41-.09-.02-2.78,10.61-2.64-.69,4.07-15.58,3.43,.9,.13,11.13,.09,.02,2.72-10.39,2.66,.7-4.08,15.58-3.25-.85Z"/><path d="M198.74,47.92l.7-6.79-.68-.31-2.7,5.87-2.76-1.27,6.72-14.63,4.35,2c2.35,1.08,2.98,3.06,1.73,5.8-1.13,2.46-2.62,3.03-3.87,3.12l-.5,7.57-2.99-1.37Zm2.04-8.59c.83,.38,1.77-.16,2.54-1.84,.64-1.4,.62-2.52-.27-2.92l-1.17-.54-2.2,4.79,1.1,.51Z"/><path d="M204.82,51.04l8.24-13.83,5.92,3.52-1.11,1.86-3.31-1.97-2.34,3.93,2.71,1.61-1.11,1.86-2.71-1.61-2.57,4.31,3.49,2.08-1.11,1.86-6.1-3.63Z"/><path d="M216.05,54.74c.12,.7,.66,1.62,1.22,2.04,.68,.5,1.78,.62,2.5-.36,1.81-2.44-1.52-6.41,1-9.83,1.61-2.18,4.27-2.04,5.94-.8,1.18,.88,1.84,2.15,1.98,2.86l-1.99,1.11c-.17-.68-.69-1.7-1.32-2.17-.58-.43-1.46-.53-2.05,.26-1.68,2.27,1.71,6.23-.92,9.8-1.75,2.36-4.6,2.29-6.34,1-.86-.64-1.94-1.93-2.14-2.83l2.13-1.07Z"/><path d="M222.71,63.49l10.79-11.95,5.11,4.61-1.45,1.61-2.86-2.58-3.07,3.39,2.34,2.11-1.45,1.61-2.34-2.11-3.36,3.72,3.01,2.72-1.45,1.61-5.26-4.75Z"/><path d="M234.6,75.35l2.67-3.21-1.76-1.96-3.47,2.32-1.99-2.23,14.11-8.37,2.33,2.61-9.91,13.07-1.99-2.23Zm8.46-10.07l-.06-.07-5.59,3.72,1.34,1.49,4.32-5.15Z"/><path d="M242.13,85.1l3.99-5.54-.43-.61-5.26,3.75-1.76-2.47,13.11-9.34,2.77,3.9c1.5,2.11,1.06,4.14-1.39,5.89-2.2,1.57-3.79,1.32-4.92,.78l-4.21,6.32-1.91-2.68Zm6.05-6.43c.53,.74,1.62,.74,3.12-.33,1.25-.89,1.79-1.87,1.22-2.67l-.74-1.05-4.29,3.06,.7,.99Z"/><path d="M250.33,98.09c-.58-.42-1.34-1.1-1.97-2.24-1.81-3.24-.73-6.67,4.02-9.32,4.97-2.78,8.84-1.83,10.61,1.35,.5,.9,.79,1.89,.87,2.56l-2.25,.51c0-.51-.24-1.39-.54-1.92-.84-1.51-3.49-1.85-7.14,.19-3.61,2.01-4.36,4.2-3.42,5.89,.4,.71,.9,1.13,1.43,1.5l-1.6,1.48Z"/><path d="M253.94,107.25l6.65-2.75-1.25-3.02-6.65,2.75-1.19-2.87,14.89-6.15,1.19,2.87-6.17,2.55,1.25,3.02,6.17-2.55,1.19,2.87-14.89,6.15-1.19-2.87Z"/></g></g><g><path d="M264.69,115.29l-3.4,1.15c4.97,17.24,6.02,35.87,2.28,54.65-.13,.66-.28,1.32-.42,1.98-1.52,7-3.64,13.72-6.31,20.11l3.33,1.35c2.67-6.39,4.81-13.1,6.36-20.09,.2-.88,.39-1.77,.56-2.66,3.87-19.42,2.77-38.69-2.4-56.5Z"/><path d="M35.94,125.76c3.72-18.69,11.77-35.44,22.88-49.42l-2.7-2.37c-11.52,14.44-19.86,31.75-23.7,51.08-.17,.86-.33,1.72-.48,2.58-1.25,7.04-1.84,14.06-1.83,20.99l3.59,.02c-.01-6.93,.61-13.95,1.89-20.99,.12-.63,.23-1.27,.35-1.9Z"/></g></svg>